<?xml version="1.0" encoding="utf-8"?>
<!-- Generator: Adobe Illustrator 19.2.1, SVG Export Plug-In . SVG Version: 6.00 Build 0)  -->
<svg version="1.1" id="Layer_1" xmlns="http://www.w3.org/2000/svg" xmlns:xlink="http://www.w3.org/1999/xlink" x="0px" y="0px"
	 viewBox="0 0 337.9 338.3" style="enable-background:new 0 0 337.9 338.3;" xml:space="preserve">
<style type="text/css">
	.st0{fill:url(#SVGID_1_);}
	.st1{fill:url(#SVGID_2_);}
	.st2{fill:url(#SVGID_3_);}
	.st3{fill:url(#SVGID_4_);}
	.st4{fill:url(#SVGID_5_);}
	.st5{fill:url(#SVGID_6_);}
	.st6{fill:url(#SVGID_7_);}
	.st7{fill:url(#SVGID_8_);}
	.st8{fill:url(#SVGID_9_);}
	.st9{fill:url(#SVGID_10_);}
	.st10{fill:url(#SVGID_11_);}
	.st11{fill:url(#SVGID_12_);}
	.st12{fill:url(#SVGID_13_);}
	.st13{fill:url(#SVGID_14_);}
	.st14{fill:url(#SVGID_15_);}
	.st15{fill:url(#SVGID_16_);}
	.st16{fill:url(#SVGID_17_);}
	.st17{fill:url(#SVGID_18_);}
	.st18{fill:url(#SVGID_19_);}
	.st19{fill:url(#SVGID_20_);}
	.st20{fill:url(#SVGID_21_);}
	.st21{fill:url(#SVGID_22_);}
	.st22{fill:url(#SVGID_23_);}
	.st23{fill:url(#SVGID_24_);}
	.st24{fill:url(#SVGID_25_);}
	.st25{fill:#FFFFFF;}
</style>
<title>icon</title>
<linearGradient id="SVGID_1_" gradientUnits="userSpaceOnUse" x1="168.3007" y1="782.9749" x2="168.3007" y2="468.8826" gradientTransform="matrix(1 0 0 1 0 -452)">
	<stop  offset="0" style="stop-color:#28323D"/>
	<stop  offset="0.3323" style="stop-color:#154C7C"/>
	<stop  offset="0.8308" style="stop-color:#1D75BA"/>
</linearGradient>
<path class="st0" d="M324.7,338.3H12c-6.6,0-12-5.4-12-12V13.7c0-6.6,5.4-12,12-12h312.6c6.6,0,12,5.4,12,12v312.6
	C336.7,332.9,331.3,338.3,324.7,338.3z"/>
<linearGradient id="SVGID_2_" gradientUnits="userSpaceOnUse" x1="288.6" y1="705.9786" x2="288.6" y2="615.1781" gradientTransform="matrix(1 0 0 1 0 -452)">
	<stop  offset="0" style="stop-color:#154C7C"/>
	<stop  offset="0.8308" style="stop-color:#1D75BA"/>
</linearGradient>
<polygon class="st1" points="303.4,177.9 302.2,170.9 273.8,177.9 "/>
<linearGradient id="SVGID_3_" gradientUnits="userSpaceOnUse" x1="320.1" y1="705.9786" x2="320.1" y2="615.1781" gradientTransform="matrix(1 0 0 1 0 -452)">
	<stop  offset="0" style="stop-color:#154C7C"/>
	<stop  offset="0.8308" style="stop-color:#1D75BA"/>
</linearGradient>
<polygon class="st2" points="304.8,177.9 336.6,177.9 336.6,162.6 303.6,170.6 "/>
<linearGradient id="SVGID_4_" gradientUnits="userSpaceOnUse" x1="78.3" y1="705.9786" x2="78.3" y2="615.1781" gradientTransform="matrix(1 0 0 1 0 -452)">
	<stop  offset="0" style="stop-color:#154C7C"/>
	<stop  offset="0.8308" style="stop-color:#1D75BA"/>
</linearGradient>
<polygon class="st3" points="111.2,233.9 113.5,216.8 43.1,233.9 "/>
<linearGradient id="SVGID_5_" gradientUnits="userSpaceOnUse" x1="185.05" y1="705.9786" x2="185.05" y2="615.1781" gradientTransform="matrix(1 0 0 1 0 -452)">
	<stop  offset="0" style="stop-color:#154C7C"/>
	<stop  offset="0.8308" style="stop-color:#1D75BA"/>
</linearGradient>
<polygon class="st4" points="211.6,205.9 211.4,193 158.5,205.8 "/>
<linearGradient id="SVGID_6_" gradientUnits="userSpaceOnUse" x1="260.3" y1="705.9786" x2="260.3" y2="615.1781" gradientTransform="matrix(1 0 0 1 0 -452)">
	<stop  offset="0" style="stop-color:#154C7C"/>
	<stop  offset="0.8308" style="stop-color:#1D75BA"/>
</linearGradient>
<polygon class="st5" points="304.2,182.8 253.3,182.8 212.6,192.7 212.8,205.9 308,205.9 "/>
<linearGradient id="SVGID_7_" gradientUnits="userSpaceOnUse" x1="162.3" y1="705.9786" x2="162.3" y2="615.1781" gradientTransform="matrix(1 0 0 1 0 -452)">
	<stop  offset="0" style="stop-color:#154C7C"/>
	<stop  offset="0.8308" style="stop-color:#1D75BA"/>
</linearGradient>
<polygon class="st6" points="114.9,216.4 112.5,233.9 212.1,233.9 211.7,210.8 138,210.8 "/>
<linearGradient id="SVGID_8_" gradientUnits="userSpaceOnUse" x1="69.05" y1="705.9786" x2="69.05" y2="615.1781" gradientTransform="matrix(1 0 0 1 0 -452)">
	<stop  offset="0" style="stop-color:#154C7C"/>
	<stop  offset="0.8308" style="stop-color:#1D75BA"/>
</linearGradient>
<polygon class="st7" points="118.1,182.8 26.6,182.7 20,205.8 115,205.8 "/>
<linearGradient id="SVGID_9_" gradientUnits="userSpaceOnUse" x1="74.95" y1="705.9786" x2="74.95" y2="615.1781" gradientTransform="matrix(1 0 0 1 0 -452)">
	<stop  offset="0" style="stop-color:#154C7C"/>
	<stop  offset="0.8308" style="stop-color:#1D75BA"/>
</linearGradient>
<polygon class="st8" points="121.9,154.7 34.6,154.7 28,177.7 118.8,177.8 "/>
<linearGradient id="SVGID_10_" gradientUnits="userSpaceOnUse" x1="165.65" y1="705.9786" x2="165.65" y2="615.1781" gradientTransform="matrix(1 0 0 1 0 -452)">
	<stop  offset="0" style="stop-color:#154C7C"/>
	<stop  offset="0.8308" style="stop-color:#1D75BA"/>
</linearGradient>
<polygon class="st9" points="211.2,177.8 210.8,154.8 123.2,154.7 120.1,177.8 "/>
<linearGradient id="SVGID_11_" gradientUnits="userSpaceOnUse" x1="16.4" y1="705.9786" x2="16.4" y2="615.1781" gradientTransform="matrix(1 0 0 1 0 -452)">
	<stop  offset="0" style="stop-color:#154C7C"/>
	<stop  offset="0.8308" style="stop-color:#1D75BA"/>
</linearGradient>
<polygon class="st10" points="32.8,154.7 0,154.7 0,177.7 26.2,177.7 "/>
<linearGradient id="SVGID_12_" gradientUnits="userSpaceOnUse" x1="54.9" y1="705.9786" x2="54.9" y2="615.1781" gradientTransform="matrix(1 0 0 1 0 -452)">
	<stop  offset="0" style="stop-color:#154C7C"/>
	<stop  offset="0.8308" style="stop-color:#1D75BA"/>
</linearGradient>
<polygon class="st11" points="18.6,210.8 12.7,231.3 97.1,210.8 "/>
<linearGradient id="SVGID_13_" gradientUnits="userSpaceOnUse" x1="12.4" y1="705.9786" x2="12.4" y2="615.1781" gradientTransform="matrix(1 0 0 1 0 -452)">
	<stop  offset="0" style="stop-color:#154C7C"/>
	<stop  offset="0.8308" style="stop-color:#1D75BA"/>
</linearGradient>
<polygon class="st12" points="24.8,182.7 0,182.7 0,205.8 18.2,205.8 "/>
<linearGradient id="SVGID_14_" gradientUnits="userSpaceOnUse" x1="325.8" y1="705.9786" x2="325.8" y2="615.1781" gradientTransform="matrix(1 0 0 1 0 -452)">
	<stop  offset="0" style="stop-color:#154C7C"/>
	<stop  offset="0.8308" style="stop-color:#1D75BA"/>
</linearGradient>
<polygon class="st13" points="318.8,262 336.6,262 336.6,238.9 315,238.9 "/>
<linearGradient id="SVGID_15_" gradientUnits="userSpaceOnUse" x1="321.1" y1="705.9786" x2="321.1" y2="615.1781" gradientTransform="matrix(1 0 0 1 0 -452)">
	<stop  offset="0" style="stop-color:#154C7C"/>
	<stop  offset="0.8308" style="stop-color:#1D75BA"/>
</linearGradient>
<polygon class="st14" points="309.5,205.9 336.6,205.9 336.6,182.8 305.6,182.8 "/>
<linearGradient id="SVGID_16_" gradientUnits="userSpaceOnUse" x1="57.25" y1="705.9786" x2="57.25" y2="615.1781" gradientTransform="matrix(1 0 0 1 0 -452)">
	<stop  offset="0" style="stop-color:#154C7C"/>
	<stop  offset="0.8308" style="stop-color:#1D75BA"/>
</linearGradient>
<polygon class="st15" points="22.7,238.8 9.7,242 4,261.9 107.4,261.9 110.5,238.8 "/>
<linearGradient id="SVGID_17_" gradientUnits="userSpaceOnUse" x1="323.45" y1="705.9786" x2="323.45" y2="615.1781" gradientTransform="matrix(1 0 0 1 0 -452)">
	<stop  offset="0" style="stop-color:#154C7C"/>
	<stop  offset="0.8308" style="stop-color:#1D75BA"/>
</linearGradient>
<polygon class="st16" points="314.2,233.9 336.6,233.9 336.6,210.9 310.3,210.9 "/>
<linearGradient id="SVGID_18_" gradientUnits="userSpaceOnUse" x1="163.8" y1="705.9786" x2="163.8" y2="615.1781" gradientTransform="matrix(1 0 0 1 0 -452)">
	<stop  offset="0" style="stop-color:#154C7C"/>
	<stop  offset="0.8308" style="stop-color:#1D75BA"/>
</linearGradient>
<polygon class="st17" points="119.4,182.8 116.3,205.8 117.5,205.8 211.3,183.1 211.2,182.8 "/>
<linearGradient id="SVGID_19_" gradientUnits="userSpaceOnUse" x1="265.35" y1="705.9786" x2="265.35" y2="615.1781" gradientTransform="matrix(1 0 0 1 0 -452)">
	<stop  offset="0" style="stop-color:#154C7C"/>
	<stop  offset="0.8308" style="stop-color:#1D75BA"/>
</linearGradient>
<polygon class="st18" points="213.3,238.9 213.7,261.9 317.4,262 313.6,238.9 "/>
<linearGradient id="SVGID_20_" gradientUnits="userSpaceOnUse" x1="262.8" y1="705.9786" x2="262.8" y2="615.1781" gradientTransform="matrix(1 0 0 1 0 -452)">
	<stop  offset="0" style="stop-color:#154C7C"/>
	<stop  offset="0.8308" style="stop-color:#1D75BA"/>
</linearGradient>
<polygon class="st19" points="308.9,210.9 212.9,210.8 213.2,233.9 312.7,233.9 "/>
<linearGradient id="SVGID_21_" gradientUnits="userSpaceOnUse" x1="3.85" y1="705.9786" x2="3.85" y2="615.1781" gradientTransform="matrix(1 0 0 1 0 -452)">
	<stop  offset="0" style="stop-color:#154C7C"/>
	<stop  offset="0.8308" style="stop-color:#1D75BA"/>
</linearGradient>
<polygon class="st20" points="7.7,242.5 0,244.4 0,261.9 2.2,261.9 "/>
<linearGradient id="SVGID_22_" gradientUnits="userSpaceOnUse" x1="160.65" y1="705.9786" x2="160.65" y2="615.1781" gradientTransform="matrix(1 0 0 1 0 -452)">
	<stop  offset="0" style="stop-color:#154C7C"/>
	<stop  offset="0.8308" style="stop-color:#1D75BA"/>
</linearGradient>
<polygon class="st21" points="111.9,238.8 108.8,261.9 212.5,261.9 212.2,238.9 "/>
<linearGradient id="SVGID_23_" gradientUnits="userSpaceOnUse" x1="8.4" y1="705.9786" x2="8.4" y2="615.1781" gradientTransform="matrix(1 0 0 1 0 -452)">
	<stop  offset="0" style="stop-color:#154C7C"/>
	<stop  offset="0.8308" style="stop-color:#1D75BA"/>
</linearGradient>
<polygon class="st22" points="10.8,231.8 16.8,210.8 0,210.8 0,233.8 2.2,233.8 "/>
<linearGradient id="SVGID_24_" gradientUnits="userSpaceOnUse" x1="314.2" y1="705.9786" x2="314.2" y2="615.1781" gradientTransform="matrix(1 0 0 1 0 -452)">
	<stop  offset="0" style="stop-color:#154C7C"/>
	<stop  offset="0.8308" style="stop-color:#1D75BA"/>
</linearGradient>
<polygon class="st23" points="327.5,154.8 300.9,154.8 302,161 "/>
<linearGradient id="SVGID_25_" gradientUnits="userSpaceOnUse" x1="256.3" y1="705.9786" x2="256.3" y2="615.1781" gradientTransform="matrix(1 0 0 1 0 -452)">
	<stop  offset="0" style="stop-color:#154C7C"/>
	<stop  offset="0.8308" style="stop-color:#1D75BA"/>
</linearGradient>
<polygon class="st24" points="232.8,177.8 300.6,161.4 299.5,154.8 212,154.8 212.3,177.8 "/>
<g>
	<g>
		<path class="st25" d="M28.3,154.1c2.6,0,5.1,0.9,7,2.7c0.4,0.4,0.9,0.4,1.3,0l4.1-4.2c0.4-0.4,0.4-1-0.1-1.5
			c-3.6-3.2-7.4-4.9-12.6-4.9c-10.4,0-18.8,8.4-18.8,18.8s8.4,18.7,18.8,18.7c4.6,0,9.1-1.6,12.7-5.1c0.4-0.4,0.4-1,0.1-1.4
			l-4.1-4.3c-0.3-0.4-1-0.4-1.4-0.1c-1.9,1.6-4.5,2.5-7,2.5c-5.9,0-10.3-4.8-10.3-10.6C18.1,159,22.4,154.1,28.3,154.1z"/>
		<path class="st25" d="M60.9,146.8c-0.2-0.3-0.5-0.6-0.9-0.6h-0.5c-0.4,0-0.7,0.3-0.9,0.6L42.3,182c-0.3,0.7,0.1,1.4,0.9,1.4h5.7
			c1,0,1.6-0.6,1.9-1.3l1.9-4.2h14.2l1.9,4.1c0.5,1,0.9,1.3,1.8,1.3h5.8c0.8,0,1.2-0.7,0.9-1.4L60.9,146.8z M55.8,170.8l3.9-8.6h0.1
			l4,8.6H55.8z"/>
		<path class="st25" d="M109.5,158.1c0-6.2-5.1-11.3-11.4-11.3H82.5c-0.6,0-1,0.5-1,1v34.6c0,0.5,0.4,1,1,1h6.2c0.5,0,1-0.5,1-1V169
			h3.6l6.9,13.8c0.1,0.2,0.4,0.5,0.8,0.5h6.9c0.9,0,1.3-0.8,0.9-1.5l-7.2-13.3C106.4,166.7,109.5,162.9,109.5,158.1z M97.5,162.4
			h-7.7v-8.1h7.7c2.1,0,4,1.8,4,4S99.6,162.4,97.5,162.4z"/>
		<path class="st25" d="M137,146.8h-23.2c-0.6,0-1,0.5-1,1v5.7c0,0.5,0.4,1,1,1h7.5v27.9c0,0.5,0.5,1,1,1h6.3c0.5,0,1-0.5,1-1v-27.9
			h7.5c0.6,0,1-0.5,1-1v-5.7C137.9,147.2,137.5,146.8,137,146.8z"/>
		<g>
			<path class="st25" d="M160.2,145c-11.1,0-20.2,9.1-20.2,20.2c0,11,17.8,28.5,19.6,29.5c0.2,0.1,0.4,0.1,0.6,0.1
				c0.2,0,0.5-0.1,0.6-0.1c1.8-1,19.6-18.5,19.6-29.5C180.4,154.1,171.4,145,160.2,145z M160.2,178.9c-8.1,0-14.4-6.3-14.4-14.4
				c0-8,6.5-14.5,14.4-14.5c8,0,14.4,6.5,14.4,14.5C174.6,172.6,168.3,178.9,160.2,178.9z"/>
			<path class="st25" d="M160.2,157.2c-4,0-7.2,3.3-7.2,7.3s3.3,7.2,7.2,7.2c4,0,7.2-3.3,7.2-7.2
				C167.4,160.5,164.2,157.2,160.2,157.2z"/>
		</g>
		<path class="st25" d="M198.9,146.8h-12.6c-0.6,0-1,0.5-1,1v34.6c0,0.5,0.4,1,1,1h6.2c0.5,0,1-0.5,1-1v-12.3h5.5
			c6.4,0,11.6-5.3,11.6-11.7C210.6,152,205.3,146.8,198.9,146.8z M198.4,162.4h-5v-8h5c2.2,0,4.1,1.7,4.1,3.9
			C202.6,160.7,200.7,162.4,198.4,162.4z"/>
		<path class="st25" d="M241.5,158.1c0-6.2-5.1-11.3-11.4-11.3h-15.6c-0.6,0-1,0.5-1,1v34.6c0,0.5,0.4,1,1,1h6.2c0.5,0,1-0.5,1-1
			V169h3.6l6.9,13.8c0.1,0.2,0.4,0.5,0.8,0.5h6.9c0.9,0,1.3-0.8,0.9-1.5l-7.2-13.3C238.3,166.7,241.5,162.9,241.5,158.1z
			 M229.4,162.4h-7.7v-8.1h7.7c2.1,0,4,1.8,4,4S231.6,162.4,229.4,162.4z"/>
		<path class="st25" d="M269.5,146.8h-21.6c-0.6,0-1,0.5-1,1v34.6c0,0.5,0.4,1,1,1h21.6c0.6,0,1-0.5,1-1v-5.7c0-0.5-0.4-1-1-1H255
			v-7h11.9c0.5,0,1-0.4,1-1V162c0-0.5-0.5-1-1-1H255v-6.5h14.5c0.6,0,1-0.5,1-1v-5.7C270.5,147.2,270,146.8,269.5,146.8z"/>
		<path class="st25" d="M289.2,161.1c-4.1-1.7-5.7-3.1-5.7-5.1c0-1.4,1.4-2.7,3.3-2.7c3.2,0,7,2.9,7.5,3.1c0.5,0.4,1.4-0.1,1.8-0.7
			l2.7-4c0.2-0.4,0.3-1.3-0.3-1.7c-1.6-1.1-5.7-3.9-11.2-3.9c-8,0-12.1,5.2-12.1,10.4c0,6.3,5.6,9.8,10.1,11.5
			c3.6,1.4,5.4,3.1,5.4,5.3c0,1.8-1.5,3.1-3.6,3.1c-3.4,0-7.2-2.8-7.4-2.9c-0.4-0.3-1.4-0.4-1.8,0.3l-2.5,4.3
			c-0.4,0.7-0.3,0.9,0.3,1.5c1.2,1.2,5,4,11.7,4c7.7,0,12.3-5.4,12.3-10.8C299.7,165.9,293.2,162.7,289.2,161.1z"/>
		<path class="st25" d="M317,161.1c-4.1-1.7-5.7-3.1-5.7-5.1c0-1.4,1.4-2.7,3.3-2.7c3.2,0,7,2.9,7.5,3.1c0.5,0.4,1.4-0.1,1.8-0.7
			l2.7-4c0.2-0.4,0.3-1.3-0.3-1.7c-1.6-1.1-5.7-3.9-11.2-3.9c-8,0-12.1,5.2-12.1,10.4c0,6.3,5.6,9.8,10.1,11.5
			c3.6,1.4,5.4,3.1,5.4,5.3c0,1.8-1.5,3.1-3.6,3.1c-3.4,0-7.2-2.8-7.4-2.9c-0.4-0.3-1.4-0.4-1.8,0.3l-2.5,4.3
			c-0.4,0.7-0.3,0.9,0.3,1.5c1.2,1.2,5,4,11.7,4c7.7,0,12.3-5.4,12.3-10.8C327.5,165.9,321,162.7,317,161.1z"/>
	</g>
</g>
</svg>
